<svg xmlns="http://www.w3.org/2000/svg" width="112.046" height="71.726" viewBox="0 0 112.046 71.726">
  <g id="Group" transform="translate(-1206.777 -257.19)">
    <path id="Vector" d="M1278.174,294.847a11.888,11.888,0,0,0-3.887,1.655c-3.141,2-4.968,4.858-4.081,6.38s4.152,1.133,7.293-.868a12.384,12.384,0,0,0,3.189-2.852,1.565,1.565,0,0,0,.188-1.722l-1.152-1.977A1.412,1.412,0,0,0,1278.174,294.847Z" fill="#d5d6db"/>
    <path id="Vector-2" data-name="Vector" d="M1270.287,267.854a8.624,8.624,0,0,0-2.819,1.2c-2.277,1.451-3.6,3.522-2.96,4.625s3.011.82,5.288-.63a8.989,8.989,0,0,0,2.313-2.069,1.134,1.134,0,0,0,.136-1.248l-.834-1.432A1.023,1.023,0,0,0,1270.287,267.854Z" fill="#d5d6db"/>
    <path id="Vector-3" data-name="Vector" d="M1257.473,268.985a1.021,1.021,0,0,0-.656.163l-5.348,3.408a.942.942,0,0,0-.4,1.223.693.693,0,0,0,.209.225l13.182,9.085,17.833-11.365Z" fill="#029bc5"/>
    <path id="Vector-4" data-name="Vector" d="M1313.85,267.7l-48.532,30.552-28.713,11.425-14.643,2.911-1.611-2.737,80.9-49.947a17.991,17.991,0,0,1,7.785-2.66,14.208,14.208,0,0,1,3.461.116,9.669,9.669,0,0,1,2.8.864c.964.478,2.8.533,3.393,1.486,0,0,1.4,4.373-4.837,7.989Z" fill="#e1e6e9"/>
    <path id="Vector-5" data-name="Vector" d="M1265.962,294.209l-21,33.47a.8.8,0,0,0,.347,1.176,1.016,1.016,0,0,0,.906-.115l5.344-3.39a10.481,10.481,0,0,0,2.674-2.434l40.716-47.869Z" fill="#029bc5"/>
    <path id="Vector-6" data-name="Vector" d="M1212.982,293.092a1.318,1.318,0,0,0-1.119.166l-4.417,2.813a1.267,1.267,0,0,0-.536,1.645.933.933,0,0,0,.225.26l12.377,9.912,13.013-8.128Z" fill="#029bc5"/>
    <path id="Vector-7" data-name="Vector" d="M1223.66,309.677l-6.661,9.33a.251.251,0,0,0,.051.376.3.3,0,0,0,.316-.024l4.128-2.616a.365.365,0,0,0,.085-.075l9.734-11.835Z" fill="#029bc5"/>
    <path id="Vector-8" data-name="Vector" d="M1311.7,257.763a14.487,14.487,0,0,0-3.565-.118,12.1,12.1,0,0,0-2.189,5.379.579.579,0,0,0,.678.6.836.836,0,0,0,.353-.125l7.608-4.844A9.881,9.881,0,0,0,1311.7,257.763Z" fill="#029bc5"/>
    <path id="Vector-9" data-name="Vector" d="M1295.117,266.671l4.967-3.137,4.627,7.869-4.967,3.137Z" fill="#d5d6db"/>
    <g id="Group-2" data-name="Group">
      <path id="Vector-10" data-name="Vector" d="M1291.992,269.783a1.251,1.251,0,0,0-.534,1.628l.492.842a1.164,1.164,0,0,0,1.651.2,1.253,1.253,0,0,0,.516-1.572l-.492-.842a1.148,1.148,0,0,0-1.633-.255Z" fill="#3a556a"/>
      <path id="Vector-11" data-name="Vector" d="M1287.528,272.556a1.251,1.251,0,0,0-.534,1.628l.492.842a1.164,1.164,0,0,0,1.651.2,1.253,1.253,0,0,0,.516-1.572l-.492-.842a1.148,1.148,0,0,0-1.633-.255Z" fill="#3a556a"/>
      <path id="Vector-12" data-name="Vector" d="M1283.062,275.329a1.25,1.25,0,0,0-.533,1.627l.492.842a1.164,1.164,0,0,0,1.651.2,1.253,1.253,0,0,0,.516-1.571l-.492-.842a1.148,1.148,0,0,0-1.634-.254Z" fill="#3a556a"/>
      <path id="Vector-13" data-name="Vector" d="M1278.6,278.1a1.251,1.251,0,0,0-.533,1.627l.492.842a1.164,1.164,0,0,0,1.651.2,1.253,1.253,0,0,0,.516-1.572l-.492-.842a1.149,1.149,0,0,0-1.634-.254Z" fill="#3a556a"/>
      <path id="Vector-14" data-name="Vector" d="M1274.134,280.874a1.251,1.251,0,0,0-.533,1.628l.493.842a1.148,1.148,0,0,0,1.633.254,1.25,1.25,0,0,0,.534-1.626l-.493-.842a1.147,1.147,0,0,0-1.633-.256Z" fill="#3a556a"/>
      <path id="Vector-15" data-name="Vector" d="M1269.669,283.647a1.251,1.251,0,0,0-.533,1.628l.493.842a1.148,1.148,0,0,0,1.633.254,1.25,1.25,0,0,0,.534-1.626l-.493-.842a1.147,1.147,0,0,0-1.633-.256Z" fill="#3a556a"/>
      <path id="Vector-16" data-name="Vector" d="M1265.2,286.419a1.251,1.251,0,0,0-.533,1.627l.493.842a1.148,1.148,0,0,0,1.634.252,1.25,1.25,0,0,0,.533-1.624l-.493-.842A1.148,1.148,0,0,0,1265.2,286.419Z" fill="#3a556a"/>
      <path id="Vector-17" data-name="Vector" d="M1260.74,289.192a1.251,1.251,0,0,0-.533,1.628l.493.842a1.148,1.148,0,0,0,1.634.252,1.25,1.25,0,0,0,.533-1.624l-.493-.842A1.148,1.148,0,0,0,1260.74,289.192Z" fill="#3a556a"/>
      <path id="Vector-18" data-name="Vector" d="M1256.276,291.964a1.251,1.251,0,0,0-.533,1.627l.493.842a1.148,1.148,0,0,0,1.634.252,1.25,1.25,0,0,0,.533-1.624l-.493-.842A1.149,1.149,0,0,0,1256.276,291.964Z" fill="#3a556a"/>
      <path id="Vector-19" data-name="Vector" d="M1251.81,294.737a1.25,1.25,0,0,0-.534,1.626h0l.493.842a1.148,1.148,0,0,0,1.634.252,1.25,1.25,0,0,0,.533-1.624l-.493-.842A1.148,1.148,0,0,0,1251.81,294.737Z" fill="#3a556a"/>
      <path id="Vector-20" data-name="Vector" d="M1247.347,297.509a1.25,1.25,0,0,0-.534,1.626h0l.493.842a1.148,1.148,0,0,0,1.634.252,1.25,1.25,0,0,0,.533-1.624l-.493-.842A1.149,1.149,0,0,0,1247.347,297.509Z" fill="#3a556a"/>
    </g>
  </g>
</svg>
